# xmcd
#
# Track frame offsets:
# 150
# 11412
# 22114
# 40631
# 53970
# 63443
# 75534
# 87086
# 98025
# 113611
# 125813
# 137629
#
# Disc length: 1992 seconds
#
# Revision: 0
# Processed by: cddbd v1.5.2PL0 Copyright (c) Steve Scherf et al.
# Submitted via: Axialis_AX_CDPlayer 2.6
#
DISCID=9207c60c
DTITLE=Johnny Cash And The Carter Family - Keep On The Sunny Side
DYEAR=1900
DGENRE=
TTITLE0=Keep On The Sunny Side
TTITLE1=Single Girl, Married Girl
TTITLE2=The Banks Of The Ohio
TTITLE3=My Clinch Mountain Home
TTITLE4=Lonesome Valley
TTITLE5=Worried Man Blues
TTITLE6=Wabash Cannonball
TTITLE7=Brown Hearted Lover
TTITLE8=Brown Eyes
TTITLE9=I'm Working On A Building
TTITLE10=Gathering Flowers From The Hillside
TTITLE11=When The Roses Bloom Again
EXTD=www.johnnycash.com
EXTT0=
EXTT1=
EXTT2=
EXTT3=
EXTT4=
EXTT5=
EXTT6=
EXTT7=
EXTT8=
EXTT9=
EXTT10=
EXTT11=
PLAYORDER=
